<?xml version="1.0" encoding="utf-8" standalone="no"?>
<!DOCTYPE svg PUBLIC "-//W3C//DTD SVG 1.1//EN"
  "http://www.w3.org/Graphics/SVG/1.1/DTD/svg11.dtd">
<svg height="280.478125pt" version="1.1" viewBox="0 0 424.815625 280.478125" width="424.815625pt" xmlns="http://www.w3.org/2000/svg" xmlns:xlink="http://www.w3.org/1999/xlink">
 <metadata>
  <rdf:RDF xmlns:cc="http://creativecommons.org/ns#" xmlns:dc="http://purl.org/dc/elements/1.1/" xmlns:rdf="http://www.w3.org/1999/02/22-rdf-syntax-ns#">
   <cc:Work>
    <dc:type rdf:resource="http://purl.org/dc/dcmitype/StillImage"/>
    <dc:date>2022-10-27T18:53:47.715905</dc:date>
    <dc:format>image/svg+xml</dc:format>
    <dc:creator>
     <cc:Agent>
      <dc:title>Matplotlib v3.4.3, https://matplotlib.org/</dc:title>
     </cc:Agent>
    </dc:creator>
   </cc:Work>
  </rdf:RDF>
 </metadata>
 <defs>
  <style type="text/css">*{stroke-linecap:butt;stroke-linejoin:round;}</style>
 </defs>
 <g id="figure_1">
  <g id="patch_1">
   <path d="M -0 280.478125 
L 424.815625 280.478125 
L 424.815625 0 
L -0 0 
z
" style="fill:none;"/>
  </g>
  <g id="axes_1">
   <g id="patch_2">
    <path d="M 36.465625 69.606378 
L 417.615625 69.606378 
L 417.615625 7.2 
L 36.465625 7.2 
z
" style="fill:#ffffff;"/>
   </g>
   <g id="matplotlib.axis_1">
    <g id="xtick_1">
     <g id="line2d_1">
      <defs>
       <path d="M 0 0 
L 0 3.5 
" id="m34e628df75" style="stroke:#000000;stroke-width:0.8;"/>
      </defs>
      <g>
       <use style="stroke:#000000;stroke-width:0.8;" x="53.790625" xlink:href="#m34e628df75" y="69.606378"/>
      </g>
     </g>
     <g id="text_1">
      <!-- 0 -->
      <g transform="translate(50.609375 84.204816)scale(0.1 -0.1)">
       <defs>
        <path d="M 2034 4250 
Q 1547 4250 1301 3770 
Q 1056 3291 1056 2328 
Q 1056 1369 1301 889 
Q 1547 409 2034 409 
Q 2525 409 2770 889 
Q 3016 1369 3016 2328 
Q 3016 3291 2770 3770 
Q 2525 4250 2034 4250 
z
M 2034 4750 
Q 2819 4750 3233 4129 
Q 3647 3509 3647 2328 
Q 3647 1150 3233 529 
Q 2819 -91 2034 -91 
Q 1250 -91 836 529 
Q 422 1150 422 2328 
Q 422 3509 836 4129 
Q 1250 4750 2034 4750 
z
" id="DejaVuSans-30" transform="scale(0.015625)"/>
       </defs>
       <use xlink:href="#DejaVuSans-30"/>
      </g>
     </g>
    </g>
    <g id="xtick_2">
     <g id="line2d_2">
      <g>
       <use style="stroke:#000000;stroke-width:0.8;" x="123.790625" xlink:href="#m34e628df75" y="69.606378"/>
      </g>
     </g>
     <g id="text_2">
      <!-- 20 -->
      <g transform="translate(117.428125 84.204816)scale(0.1 -0.1)">
       <defs>
        <path d="M 1228 531 
L 3431 531 
L 3431 0 
L 469 0 
L 469 531 
Q 828 903 1448 1529 
Q 2069 2156 2228 2338 
Q 2531 2678 2651 2914 
Q 2772 3150 2772 3378 
Q 2772 3750 2511 3984 
Q 2250 4219 1831 4219 
Q 1534 4219 1204 4116 
Q 875 4013 500 3803 
L 500 4441 
Q 881 4594 1212 4672 
Q 1544 4750 1819 4750 
Q 2544 4750 2975 4387 
Q 3406 4025 3406 3419 
Q 3406 3131 3298 2873 
Q 3191 2616 2906 2266 
Q 2828 2175 2409 1742 
Q 1991 1309 1228 531 
z
" id="DejaVuSans-32" transform="scale(0.015625)"/>
       </defs>
       <use xlink:href="#DejaVuSans-32"/>
       <use x="63.623047" xlink:href="#DejaVuSans-30"/>
      </g>
     </g>
    </g>
    <g id="xtick_3">
     <g id="line2d_3">
      <g>
       <use style="stroke:#000000;stroke-width:0.8;" x="193.790625" xlink:href="#m34e628df75" y="69.606378"/>
      </g>
     </g>
     <g id="text_3">
      <!-- 40 -->
      <g transform="translate(187.428125 84.204816)scale(0.1 -0.1)">
       <defs>
        <path d="M 2419 4116 
L 825 1625 
L 2419 1625 
L 2419 4116 
z
M 2253 4666 
L 3047 4666 
L 3047 1625 
L 3713 1625 
L 3713 1100 
L 3047 1100 
L 3047 0 
L 2419 0 
L 2419 1100 
L 313 1100 
L 313 1709 
L 2253 4666 
z
" id="DejaVuSans-34" transform="scale(0.015625)"/>
       </defs>
       <use xlink:href="#DejaVuSans-34"/>
       <use x="63.623047" xlink:href="#DejaVuSans-30"/>
      </g>
     </g>
    </g>
    <g id="xtick_4">
     <g id="line2d_4">
      <g>
       <use style="stroke:#000000;stroke-width:0.8;" x="263.790625" xlink:href="#m34e628df75" y="69.606378"/>
      </g>
     </g>
     <g id="text_4">
      <!-- 60 -->
      <g transform="translate(257.428125 84.204816)scale(0.1 -0.1)">
       <defs>
        <path d="M 2113 2584 
Q 1688 2584 1439 2293 
Q 1191 2003 1191 1497 
Q 1191 994 1439 701 
Q 1688 409 2113 409 
Q 2538 409 2786 701 
Q 3034 994 3034 1497 
Q 3034 2003 2786 2293 
Q 2538 2584 2113 2584 
z
M 3366 4563 
L 3366 3988 
Q 3128 4100 2886 4159 
Q 2644 4219 2406 4219 
Q 1781 4219 1451 3797 
Q 1122 3375 1075 2522 
Q 1259 2794 1537 2939 
Q 1816 3084 2150 3084 
Q 2853 3084 3261 2657 
Q 3669 2231 3669 1497 
Q 3669 778 3244 343 
Q 2819 -91 2113 -91 
Q 1303 -91 875 529 
Q 447 1150 447 2328 
Q 447 3434 972 4092 
Q 1497 4750 2381 4750 
Q 2619 4750 2861 4703 
Q 3103 4656 3366 4563 
z
" id="DejaVuSans-36" transform="scale(0.015625)"/>
       </defs>
       <use xlink:href="#DejaVuSans-36"/>
       <use x="63.623047" xlink:href="#DejaVuSans-30"/>
      </g>
     </g>
    </g>
    <g id="xtick_5">
     <g id="line2d_5">
      <g>
       <use style="stroke:#000000;stroke-width:0.8;" x="333.790625" xlink:href="#m34e628df75" y="69.606378"/>
      </g>
     </g>
     <g id="text_5">
      <!-- 80 -->
      <g transform="translate(327.428125 84.204816)scale(0.1 -0.1)">
       <defs>
        <path d="M 2034 2216 
Q 1584 2216 1326 1975 
Q 1069 1734 1069 1313 
Q 1069 891 1326 650 
Q 1584 409 2034 409 
Q 2484 409 2743 651 
Q 3003 894 3003 1313 
Q 3003 1734 2745 1975 
Q 2488 2216 2034 2216 
z
M 1403 2484 
Q 997 2584 770 2862 
Q 544 3141 544 3541 
Q 544 4100 942 4425 
Q 1341 4750 2034 4750 
Q 2731 4750 3128 4425 
Q 3525 4100 3525 3541 
Q 3525 3141 3298 2862 
Q 3072 2584 2669 2484 
Q 3125 2378 3379 2068 
Q 3634 1759 3634 1313 
Q 3634 634 3220 271 
Q 2806 -91 2034 -91 
Q 1263 -91 848 271 
Q 434 634 434 1313 
Q 434 1759 690 2068 
Q 947 2378 1403 2484 
z
M 1172 3481 
Q 1172 3119 1398 2916 
Q 1625 2713 2034 2713 
Q 2441 2713 2670 2916 
Q 2900 3119 2900 3481 
Q 2900 3844 2670 4047 
Q 2441 4250 2034 4250 
Q 1625 4250 1398 4047 
Q 1172 3844 1172 3481 
z
" id="DejaVuSans-38" transform="scale(0.015625)"/>
       </defs>
       <use xlink:href="#DejaVuSans-38"/>
       <use x="63.623047" xlink:href="#DejaVuSans-30"/>
      </g>
     </g>
    </g>
    <g id="xtick_6">
     <g id="line2d_6">
      <g>
       <use style="stroke:#000000;stroke-width:0.8;" x="403.790625" xlink:href="#m34e628df75" y="69.606378"/>
      </g>
     </g>
     <g id="text_6">
      <!-- 100 -->
      <g transform="translate(394.246875 84.204816)scale(0.1 -0.1)">
       <defs>
        <path d="M 794 531 
L 1825 531 
L 1825 4091 
L 703 3866 
L 703 4441 
L 1819 4666 
L 2450 4666 
L 2450 531 
L 3481 531 
L 3481 0 
L 794 0 
L 794 531 
z
" id="DejaVuSans-31" transform="scale(0.015625)"/>
       </defs>
       <use xlink:href="#DejaVuSans-31"/>
       <use x="63.623047" xlink:href="#DejaVuSans-30"/>
       <use x="127.246094" xlink:href="#DejaVuSans-30"/>
      </g>
     </g>
    </g>
   </g>
   <g id="matplotlib.axis_2">
    <g id="ytick_1">
     <g id="line2d_7">
      <defs>
       <path d="M 0 0 
L -3.5 0 
" id="m2bfddb705a" style="stroke:#000000;stroke-width:0.8;"/>
      </defs>
      <g>
       <use style="stroke:#000000;stroke-width:0.8;" x="36.465625" xlink:href="#m2bfddb705a" y="52.05351"/>
      </g>
     </g>
     <g id="text_7">
      <!-- 0.72 -->
      <g transform="translate(7.2 55.852729)scale(0.1 -0.1)">
       <defs>
        <path d="M 684 794 
L 1344 794 
L 1344 0 
L 684 0 
L 684 794 
z
" id="DejaVuSans-2e" transform="scale(0.015625)"/>
        <path d="M 525 4666 
L 3525 4666 
L 3525 4397 
L 1831 0 
L 1172 0 
L 2766 4134 
L 525 4134 
L 525 4666 
z
" id="DejaVuSans-37" transform="scale(0.015625)"/>
       </defs>
       <use xlink:href="#DejaVuSans-30"/>
       <use x="63.623047" xlink:href="#DejaVuSans-2e"/>
       <use x="95.410156" xlink:href="#DejaVuSans-37"/>
       <use x="159.033203" xlink:href="#DejaVuSans-32"/>
      </g>
     </g>
    </g>
    <g id="ytick_2">
     <g id="line2d_8">
      <g>
       <use style="stroke:#000000;stroke-width:0.8;" x="36.465625" xlink:href="#m2bfddb705a" y="26.334518"/>
      </g>
     </g>
     <g id="text_8">
      <!-- 0.74 -->
      <g transform="translate(7.2 30.133736)scale(0.1 -0.1)">
       <use xlink:href="#DejaVuSans-30"/>
       <use x="63.623047" xlink:href="#DejaVuSans-2e"/>
       <use x="95.410156" xlink:href="#DejaVuSans-37"/>
       <use x="159.033203" xlink:href="#DejaVuSans-34"/>
      </g>
     </g>
    </g>
   </g>
   <g id="line2d_9">
    <path clip-path="url(#pdbacfb150b)" d="M 53.790625 11.755838 
L 57.290625 10.036654 
L 60.790625 10.036654 
L 64.290625 10.036654 
L 67.790625 10.036654 
L 71.290625 10.036654 
L 74.790625 11.755838 
L 78.290625 11.755838 
L 81.790625 11.755838 
L 85.290625 11.755838 
L 88.790625 11.755838 
L 92.290625 13.475022 
L 95.790625 13.475022 
L 99.290625 13.475022 
L 102.790625 13.475022 
L 106.290625 13.475022 
L 109.790625 15.194205 
L 113.290625 15.194205 
L 116.790625 15.194205 
L 120.290625 16.913389 
L 123.790625 16.913389 
L 127.290625 18.632573 
L 130.790625 20.351757 
L 134.290625 22.070941 
L 137.790625 23.790125 
L 141.290625 25.509309 
L 144.790625 25.509309 
L 148.290625 25.509309 
L 151.790625 27.228493 
L 155.290625 27.228493 
L 158.790625 27.228493 
L 162.290625 28.947677 
L 165.790625 30.666861 
L 169.290625 30.666861 
L 172.790625 30.666861 
L 176.290625 30.666861 
L 179.790625 32.386045 
L 183.290625 32.386045 
L 186.790625 32.386045 
L 190.290625 35.824413 
L 193.790625 35.824413 
L 197.290625 35.824413 
L 200.790625 35.824413 
L 204.290625 37.543597 
L 207.790625 37.543597 
L 211.290625 39.262781 
L 214.790625 40.981965 
L 218.290625 40.981965 
L 221.790625 40.981965 
L 225.290625 40.981965 
L 228.790625 44.420333 
L 232.290625 44.420333 
L 235.790625 46.139517 
L 239.290625 49.577885 
L 242.790625 51.297069 
L 246.290625 51.297069 
L 249.790625 51.297069 
L 253.290625 51.297069 
L 256.790625 51.297069 
L 260.290625 51.297069 
L 263.790625 53.016253 
L 267.290625 53.016253 
L 270.790625 53.016253 
L 274.290625 53.016253 
L 277.790625 53.016253 
L 281.290625 54.735437 
L 284.790625 56.454621 
L 288.290625 56.454621 
L 291.790625 56.454621 
L 295.290625 54.735437 
L 298.790625 54.735437 
L 302.290625 54.735437 
L 305.790625 54.735437 
L 309.290625 54.735437 
L 312.790625 54.735437 
L 316.290625 56.454621 
L 319.790625 58.173805 
L 323.290625 59.892989 
L 326.790625 63.331357 
L 330.290625 63.331357 
L 333.790625 63.331357 
L 337.290625 63.331357 
L 340.790625 63.331357 
L 344.290625 63.331357 
L 347.790625 63.331357 
L 351.290625 63.331357 
L 354.790625 63.331357 
L 358.290625 63.331357 
L 361.790625 63.331357 
L 365.290625 63.331357 
L 368.790625 63.331357 
L 372.290625 63.331357 
L 375.790625 61.612173 
L 379.290625 61.612173 
L 382.790625 61.612173 
L 386.290625 61.612173 
L 389.790625 63.331357 
L 393.290625 63.331357 
L 396.790625 65.050541 
L 400.290625 66.769725 
" style="fill:none;stroke:#1f77b4;stroke-linecap:square;stroke-width:1.5;"/>
   </g>
   <g id="patch_3">
    <path d="M 36.465625 69.606378 
L 36.465625 7.2 
" style="fill:none;stroke:#000000;stroke-linecap:square;stroke-linejoin:miter;stroke-width:0.8;"/>
   </g>
   <g id="patch_4">
    <path d="M 417.615625 69.606378 
L 417.615625 7.2 
" style="fill:none;stroke:#000000;stroke-linecap:square;stroke-linejoin:miter;stroke-width:0.8;"/>
   </g>
   <g id="patch_5">
    <path d="M 36.465625 69.606378 
L 417.615625 69.606378 
" style="fill:none;stroke:#000000;stroke-linecap:square;stroke-linejoin:miter;stroke-width:0.8;"/>
   </g>
   <g id="patch_6">
    <path d="M 36.465625 7.2 
L 417.615625 7.2 
" style="fill:none;stroke:#000000;stroke-linecap:square;stroke-linejoin:miter;stroke-width:0.8;"/>
   </g>
   <g id="legend_1">
    <g id="patch_7">
     <path d="M 333.507812 29.878125 
L 410.615625 29.878125 
Q 412.615625 29.878125 412.615625 27.878125 
L 412.615625 14.2 
Q 412.615625 12.2 410.615625 12.2 
L 333.507812 12.2 
Q 331.507812 12.2 331.507812 14.2 
L 331.507812 27.878125 
Q 331.507812 29.878125 333.507812 29.878125 
z
" style="fill:#ffffff;opacity:0.8;stroke:#cccccc;stroke-linejoin:miter;"/>
    </g>
    <g id="line2d_10">
     <path d="M 335.507812 20.298437 
L 355.507812 20.298437 
" style="fill:none;stroke:#1f77b4;stroke-linecap:square;stroke-width:1.5;"/>
    </g>
    <g id="line2d_11"/>
    <g id="text_9">
     <!-- precision -->
     <g transform="translate(363.507812 23.798437)scale(0.1 -0.1)">
      <defs>
       <path d="M 1159 525 
L 1159 -1331 
L 581 -1331 
L 581 3500 
L 1159 3500 
L 1159 2969 
Q 1341 3281 1617 3432 
Q 1894 3584 2278 3584 
Q 2916 3584 3314 3078 
Q 3713 2572 3713 1747 
Q 3713 922 3314 415 
Q 2916 -91 2278 -91 
Q 1894 -91 1617 61 
Q 1341 213 1159 525 
z
M 3116 1747 
Q 3116 2381 2855 2742 
Q 2594 3103 2138 3103 
Q 1681 3103 1420 2742 
Q 1159 2381 1159 1747 
Q 1159 1113 1420 752 
Q 1681 391 2138 391 
Q 2594 391 2855 752 
Q 3116 1113 3116 1747 
z
" id="DejaVuSans-70" transform="scale(0.015625)"/>
       <path d="M 2631 2963 
Q 2534 3019 2420 3045 
Q 2306 3072 2169 3072 
Q 1681 3072 1420 2755 
Q 1159 2438 1159 1844 
L 1159 0 
L 581 0 
L 581 3500 
L 1159 3500 
L 1159 2956 
Q 1341 3275 1631 3429 
Q 1922 3584 2338 3584 
Q 2397 3584 2469 3576 
Q 2541 3569 2628 3553 
L 2631 2963 
z
" id="DejaVuSans-72" transform="scale(0.015625)"/>
       <path d="M 3597 1894 
L 3597 1613 
L 953 1613 
Q 991 1019 1311 708 
Q 1631 397 2203 397 
Q 2534 397 2845 478 
Q 3156 559 3463 722 
L 3463 178 
Q 3153 47 2828 -22 
Q 2503 -91 2169 -91 
Q 1331 -91 842 396 
Q 353 884 353 1716 
Q 353 2575 817 3079 
Q 1281 3584 2069 3584 
Q 2775 3584 3186 3129 
Q 3597 2675 3597 1894 
z
M 3022 2063 
Q 3016 2534 2758 2815 
Q 2500 3097 2075 3097 
Q 1594 3097 1305 2825 
Q 1016 2553 972 2059 
L 3022 2063 
z
" id="DejaVuSans-65" transform="scale(0.015625)"/>
       <path d="M 3122 3366 
L 3122 2828 
Q 2878 2963 2633 3030 
Q 2388 3097 2138 3097 
Q 1578 3097 1268 2742 
Q 959 2388 959 1747 
Q 959 1106 1268 751 
Q 1578 397 2138 397 
Q 2388 397 2633 464 
Q 2878 531 3122 666 
L 3122 134 
Q 2881 22 2623 -34 
Q 2366 -91 2075 -91 
Q 1284 -91 818 406 
Q 353 903 353 1747 
Q 353 2603 823 3093 
Q 1294 3584 2113 3584 
Q 2378 3584 2631 3529 
Q 2884 3475 3122 3366 
z
" id="DejaVuSans-63" transform="scale(0.015625)"/>
       <path d="M 603 3500 
L 1178 3500 
L 1178 0 
L 603 0 
L 603 3500 
z
M 603 4863 
L 1178 4863 
L 1178 4134 
L 603 4134 
L 603 4863 
z
" id="DejaVuSans-69" transform="scale(0.015625)"/>
       <path d="M 2834 3397 
L 2834 2853 
Q 2591 2978 2328 3040 
Q 2066 3103 1784 3103 
Q 1356 3103 1142 2972 
Q 928 2841 928 2578 
Q 928 2378 1081 2264 
Q 1234 2150 1697 2047 
L 1894 2003 
Q 2506 1872 2764 1633 
Q 3022 1394 3022 966 
Q 3022 478 2636 193 
Q 2250 -91 1575 -91 
Q 1294 -91 989 -36 
Q 684 19 347 128 
L 347 722 
Q 666 556 975 473 
Q 1284 391 1588 391 
Q 1994 391 2212 530 
Q 2431 669 2431 922 
Q 2431 1156 2273 1281 
Q 2116 1406 1581 1522 
L 1381 1569 
Q 847 1681 609 1914 
Q 372 2147 372 2553 
Q 372 3047 722 3315 
Q 1072 3584 1716 3584 
Q 2034 3584 2315 3537 
Q 2597 3491 2834 3397 
z
" id="DejaVuSans-73" transform="scale(0.015625)"/>
       <path d="M 1959 3097 
Q 1497 3097 1228 2736 
Q 959 2375 959 1747 
Q 959 1119 1226 758 
Q 1494 397 1959 397 
Q 2419 397 2687 759 
Q 2956 1122 2956 1747 
Q 2956 2369 2687 2733 
Q 2419 3097 1959 3097 
z
M 1959 3584 
Q 2709 3584 3137 3096 
Q 3566 2609 3566 1747 
Q 3566 888 3137 398 
Q 2709 -91 1959 -91 
Q 1206 -91 779 398 
Q 353 888 353 1747 
Q 353 2609 779 3096 
Q 1206 3584 1959 3584 
z
" id="DejaVuSans-6f" transform="scale(0.015625)"/>
       <path d="M 3513 2113 
L 3513 0 
L 2938 0 
L 2938 2094 
Q 2938 2591 2744 2837 
Q 2550 3084 2163 3084 
Q 1697 3084 1428 2787 
Q 1159 2491 1159 1978 
L 1159 0 
L 581 0 
L 581 3500 
L 1159 3500 
L 1159 2956 
Q 1366 3272 1645 3428 
Q 1925 3584 2291 3584 
Q 2894 3584 3203 3211 
Q 3513 2838 3513 2113 
z
" id="DejaVuSans-6e" transform="scale(0.015625)"/>
      </defs>
      <use xlink:href="#DejaVuSans-70"/>
      <use x="63.476562" xlink:href="#DejaVuSans-72"/>
      <use x="102.339844" xlink:href="#DejaVuSans-65"/>
      <use x="163.863281" xlink:href="#DejaVuSans-63"/>
      <use x="218.84375" xlink:href="#DejaVuSans-69"/>
      <use x="246.626953" xlink:href="#DejaVuSans-73"/>
      <use x="298.726562" xlink:href="#DejaVuSans-69"/>
      <use x="326.509766" xlink:href="#DejaVuSans-6f"/>
      <use x="387.691406" xlink:href="#DejaVuSans-6e"/>
     </g>
    </g>
   </g>
  </g>
  <g id="axes_2">
   <g id="patch_8">
    <path d="M 36.465625 163.103189 
L 417.615625 163.103189 
L 417.615625 100.696811 
L 36.465625 100.696811 
z
" style="fill:#ffffff;"/>
   </g>
   <g id="matplotlib.axis_3">
    <g id="xtick_7">
     <g id="line2d_12">
      <g>
       <use style="stroke:#000000;stroke-width:0.8;" x="53.790625" xlink:href="#m34e628df75" y="163.103189"/>
      </g>
     </g>
     <g id="text_10">
      <!-- 0 -->
      <g transform="translate(50.609375 177.701627)scale(0.1 -0.1)">
       <use xlink:href="#DejaVuSans-30"/>
      </g>
     </g>
    </g>
    <g id="xtick_8">
     <g id="line2d_13">
      <g>
       <use style="stroke:#000000;stroke-width:0.8;" x="123.790625" xlink:href="#m34e628df75" y="163.103189"/>
      </g>
     </g>
     <g id="text_11">
      <!-- 20 -->
      <g transform="translate(117.428125 177.701627)scale(0.1 -0.1)">
       <use xlink:href="#DejaVuSans-32"/>
       <use x="63.623047" xlink:href="#DejaVuSans-30"/>
      </g>
     </g>
    </g>
    <g id="xtick_9">
     <g id="line2d_14">
      <g>
       <use style="stroke:#000000;stroke-width:0.8;" x="193.790625" xlink:href="#m34e628df75" y="163.103189"/>
      </g>
     </g>
     <g id="text_12">
      <!-- 40 -->
      <g transform="translate(187.428125 177.701627)scale(0.1 -0.1)">
       <use xlink:href="#DejaVuSans-34"/>
       <use x="63.623047" xlink:href="#DejaVuSans-30"/>
      </g>
     </g>
    </g>
    <g id="xtick_10">
     <g id="line2d_15">
      <g>
       <use style="stroke:#000000;stroke-width:0.8;" x="263.790625" xlink:href="#m34e628df75" y="163.103189"/>
      </g>
     </g>
     <g id="text_13">
      <!-- 60 -->
      <g transform="translate(257.428125 177.701627)scale(0.1 -0.1)">
       <use xlink:href="#DejaVuSans-36"/>
       <use x="63.623047" xlink:href="#DejaVuSans-30"/>
      </g>
     </g>
    </g>
    <g id="xtick_11">
     <g id="line2d_16">
      <g>
       <use style="stroke:#000000;stroke-width:0.8;" x="333.790625" xlink:href="#m34e628df75" y="163.103189"/>
      </g>
     </g>
     <g id="text_14">
      <!-- 80 -->
      <g transform="translate(327.428125 177.701627)scale(0.1 -0.1)">
       <use xlink:href="#DejaVuSans-38"/>
       <use x="63.623047" xlink:href="#DejaVuSans-30"/>
      </g>
     </g>
    </g>
    <g id="xtick_12">
     <g id="line2d_17">
      <g>
       <use style="stroke:#000000;stroke-width:0.8;" x="403.790625" xlink:href="#m34e628df75" y="163.103189"/>
      </g>
     </g>
     <g id="text_15">
      <!-- 100 -->
      <g transform="translate(394.246875 177.701627)scale(0.1 -0.1)">
       <use xlink:href="#DejaVuSans-31"/>
       <use x="63.623047" xlink:href="#DejaVuSans-30"/>
       <use x="127.246094" xlink:href="#DejaVuSans-30"/>
      </g>
     </g>
    </g>
   </g>
   <g id="matplotlib.axis_4">
    <g id="ytick_3">
     <g id="line2d_18">
      <g>
       <use style="stroke:#000000;stroke-width:0.8;" x="36.465625" xlink:href="#m2bfddb705a" y="160.266536"/>
      </g>
     </g>
     <g id="text_16">
      <!-- 0.95 -->
      <g transform="translate(7.2 164.065754)scale(0.1 -0.1)">
       <defs>
        <path d="M 703 97 
L 703 672 
Q 941 559 1184 500 
Q 1428 441 1663 441 
Q 2288 441 2617 861 
Q 2947 1281 2994 2138 
Q 2813 1869 2534 1725 
Q 2256 1581 1919 1581 
Q 1219 1581 811 2004 
Q 403 2428 403 3163 
Q 403 3881 828 4315 
Q 1253 4750 1959 4750 
Q 2769 4750 3195 4129 
Q 3622 3509 3622 2328 
Q 3622 1225 3098 567 
Q 2575 -91 1691 -91 
Q 1453 -91 1209 -44 
Q 966 3 703 97 
z
M 1959 2075 
Q 2384 2075 2632 2365 
Q 2881 2656 2881 3163 
Q 2881 3666 2632 3958 
Q 2384 4250 1959 4250 
Q 1534 4250 1286 3958 
Q 1038 3666 1038 3163 
Q 1038 2656 1286 2365 
Q 1534 2075 1959 2075 
z
" id="DejaVuSans-39" transform="scale(0.015625)"/>
        <path d="M 691 4666 
L 3169 4666 
L 3169 4134 
L 1269 4134 
L 1269 2991 
Q 1406 3038 1543 3061 
Q 1681 3084 1819 3084 
Q 2600 3084 3056 2656 
Q 3513 2228 3513 1497 
Q 3513 744 3044 326 
Q 2575 -91 1722 -91 
Q 1428 -91 1123 -41 
Q 819 9 494 109 
L 494 744 
Q 775 591 1075 516 
Q 1375 441 1709 441 
Q 2250 441 2565 725 
Q 2881 1009 2881 1497 
Q 2881 1984 2565 2268 
Q 2250 2553 1709 2553 
Q 1456 2553 1204 2497 
Q 953 2441 691 2322 
L 691 4666 
z
" id="DejaVuSans-35" transform="scale(0.015625)"/>
       </defs>
       <use xlink:href="#DejaVuSans-30"/>
       <use x="63.623047" xlink:href="#DejaVuSans-2e"/>
       <use x="95.410156" xlink:href="#DejaVuSans-39"/>
       <use x="159.033203" xlink:href="#DejaVuSans-35"/>
      </g>
     </g>
    </g>
    <g id="ytick_4">
     <g id="line2d_19">
      <g>
       <use style="stroke:#000000;stroke-width:0.8;" x="36.465625" xlink:href="#m2bfddb705a" y="131.9"/>
      </g>
     </g>
     <g id="text_17">
      <!-- 1.00 -->
      <g transform="translate(7.2 135.699219)scale(0.1 -0.1)">
       <use xlink:href="#DejaVuSans-31"/>
       <use x="63.623047" xlink:href="#DejaVuSans-2e"/>
       <use x="95.410156" xlink:href="#DejaVuSans-30"/>
       <use x="159.033203" xlink:href="#DejaVuSans-30"/>
      </g>
     </g>
    </g>
    <g id="ytick_5">
     <g id="line2d_20">
      <g>
       <use style="stroke:#000000;stroke-width:0.8;" x="36.465625" xlink:href="#m2bfddb705a" y="103.533464"/>
      </g>
     </g>
     <g id="text_18">
      <!-- 1.05 -->
      <g transform="translate(7.2 107.332683)scale(0.1 -0.1)">
       <use xlink:href="#DejaVuSans-31"/>
       <use x="63.623047" xlink:href="#DejaVuSans-2e"/>
       <use x="95.410156" xlink:href="#DejaVuSans-30"/>
       <use x="159.033203" xlink:href="#DejaVuSans-35"/>
      </g>
     </g>
    </g>
   </g>
   <g id="line2d_21">
    <path clip-path="url(#p6687555257)" d="M 53.790625 131.9 
L 57.290625 131.9 
L 60.790625 131.9 
L 64.290625 131.9 
L 67.790625 131.9 
L 71.290625 131.9 
L 74.790625 131.9 
L 78.290625 131.9 
L 81.790625 131.9 
L 85.290625 131.9 
L 88.790625 131.9 
L 92.290625 131.9 
L 95.790625 131.9 
L 99.290625 131.9 
L 102.790625 131.9 
L 106.290625 131.9 
L 109.790625 131.9 
L 113.290625 131.9 
L 116.790625 131.9 
L 120.290625 131.9 
L 123.790625 131.9 
L 127.290625 131.9 
L 130.790625 131.9 
L 134.290625 131.9 
L 137.790625 131.9 
L 141.290625 131.9 
L 144.790625 131.9 
L 148.290625 131.9 
L 151.790625 131.9 
L 155.290625 131.9 
L 158.790625 131.9 
L 162.290625 131.9 
L 165.790625 131.9 
L 169.290625 131.9 
L 172.790625 131.9 
L 176.290625 131.9 
L 179.790625 131.9 
L 183.290625 131.9 
L 186.790625 131.9 
L 190.290625 131.9 
L 193.790625 131.9 
L 197.290625 131.9 
L 200.790625 131.9 
L 204.290625 131.9 
L 207.790625 131.9 
L 211.290625 131.9 
L 214.790625 131.9 
L 218.290625 131.9 
L 221.790625 131.9 
L 225.290625 131.9 
L 228.790625 131.9 
L 232.290625 131.9 
L 235.790625 131.9 
L 239.290625 131.9 
L 242.790625 131.9 
L 246.290625 131.9 
L 249.790625 131.9 
L 253.290625 131.9 
L 256.790625 131.9 
L 260.290625 131.9 
L 263.790625 131.9 
L 267.290625 131.9 
L 270.790625 131.9 
L 274.290625 131.9 
L 277.790625 131.9 
L 281.290625 131.9 
L 284.790625 131.9 
L 288.290625 131.9 
L 291.790625 131.9 
L 295.290625 131.9 
L 298.790625 131.9 
L 302.290625 131.9 
L 305.790625 131.9 
L 309.290625 131.9 
L 312.790625 131.9 
L 316.290625 131.9 
L 319.790625 131.9 
L 323.290625 131.9 
L 326.790625 131.9 
L 330.290625 131.9 
L 333.790625 131.9 
L 337.290625 131.9 
L 340.790625 131.9 
L 344.290625 131.9 
L 347.790625 131.9 
L 351.290625 131.9 
L 354.790625 131.9 
L 358.290625 131.9 
L 361.790625 131.9 
L 365.290625 131.9 
L 368.790625 131.9 
L 372.290625 131.9 
L 375.790625 131.9 
L 379.290625 131.9 
L 382.790625 131.9 
L 386.290625 131.9 
L 389.790625 131.9 
L 393.290625 131.9 
L 396.790625 131.9 
L 400.290625 131.9 
" style="fill:none;stroke:#1f77b4;stroke-linecap:square;stroke-width:1.5;"/>
   </g>
   <g id="patch_9">
    <path d="M 36.465625 163.103189 
L 36.465625 100.696811 
" style="fill:none;stroke:#000000;stroke-linecap:square;stroke-linejoin:miter;stroke-width:0.8;"/>
   </g>
   <g id="patch_10">
    <path d="M 417.615625 163.103189 
L 417.615625 100.696811 
" style="fill:none;stroke:#000000;stroke-linecap:square;stroke-linejoin:miter;stroke-width:0.8;"/>
   </g>
   <g id="patch_11">
    <path d="M 36.465625 163.103189 
L 417.615625 163.103189 
" style="fill:none;stroke:#000000;stroke-linecap:square;stroke-linejoin:miter;stroke-width:0.8;"/>
   </g>
   <g id="patch_12">
    <path d="M 36.465625 100.696811 
L 417.615625 100.696811 
" style="fill:none;stroke:#000000;stroke-linecap:square;stroke-linejoin:miter;stroke-width:0.8;"/>
   </g>
   <g id="legend_2">
    <g id="patch_13">
     <path d="M 351.39375 123.374936 
L 410.615625 123.374936 
Q 412.615625 123.374936 412.615625 121.374936 
L 412.615625 107.696811 
Q 412.615625 105.696811 410.615625 105.696811 
L 351.39375 105.696811 
Q 349.39375 105.696811 349.39375 107.696811 
L 349.39375 121.374936 
Q 349.39375 123.374936 351.39375 123.374936 
z
" style="fill:#ffffff;opacity:0.8;stroke:#cccccc;stroke-linejoin:miter;"/>
    </g>
    <g id="line2d_22">
     <path d="M 353.39375 113.795248 
L 373.39375 113.795248 
" style="fill:none;stroke:#1f77b4;stroke-linecap:square;stroke-width:1.5;"/>
    </g>
    <g id="line2d_23"/>
    <g id="text_19">
     <!-- recall -->
     <g transform="translate(381.39375 117.295248)scale(0.1 -0.1)">
      <defs>
       <path d="M 2194 1759 
Q 1497 1759 1228 1600 
Q 959 1441 959 1056 
Q 959 750 1161 570 
Q 1363 391 1709 391 
Q 2188 391 2477 730 
Q 2766 1069 2766 1631 
L 2766 1759 
L 2194 1759 
z
M 3341 1997 
L 3341 0 
L 2766 0 
L 2766 531 
Q 2569 213 2275 61 
Q 1981 -91 1556 -91 
Q 1019 -91 701 211 
Q 384 513 384 1019 
Q 384 1609 779 1909 
Q 1175 2209 1959 2209 
L 2766 2209 
L 2766 2266 
Q 2766 2663 2505 2880 
Q 2244 3097 1772 3097 
Q 1472 3097 1187 3025 
Q 903 2953 641 2809 
L 641 3341 
Q 956 3463 1253 3523 
Q 1550 3584 1831 3584 
Q 2591 3584 2966 3190 
Q 3341 2797 3341 1997 
z
" id="DejaVuSans-61" transform="scale(0.015625)"/>
       <path d="M 603 4863 
L 1178 4863 
L 1178 0 
L 603 0 
L 603 4863 
z
" id="DejaVuSans-6c" transform="scale(0.015625)"/>
      </defs>
      <use xlink:href="#DejaVuSans-72"/>
      <use x="38.863281" xlink:href="#DejaVuSans-65"/>
      <use x="100.386719" xlink:href="#DejaVuSans-63"/>
      <use x="155.367188" xlink:href="#DejaVuSans-61"/>
      <use x="216.646484" xlink:href="#DejaVuSans-6c"/>
      <use x="244.429688" xlink:href="#DejaVuSans-6c"/>
     </g>
    </g>
   </g>
  </g>
  <g id="axes_3">
   <g id="patch_14">
    <path d="M 36.465625 256.6 
L 417.615625 256.6 
L 417.615625 194.193622 
L 36.465625 194.193622 
z
" style="fill:#ffffff;"/>
   </g>
   <g id="matplotlib.axis_5">
    <g id="xtick_13">
     <g id="line2d_24">
      <g>
       <use style="stroke:#000000;stroke-width:0.8;" x="53.790625" xlink:href="#m34e628df75" y="256.6"/>
      </g>
     </g>
     <g id="text_20">
      <!-- 0 -->
      <g transform="translate(50.609375 271.198437)scale(0.1 -0.1)">
       <use xlink:href="#DejaVuSans-30"/>
      </g>
     </g>
    </g>
    <g id="xtick_14">
     <g id="line2d_25">
      <g>
       <use style="stroke:#000000;stroke-width:0.8;" x="123.790625" xlink:href="#m34e628df75" y="256.6"/>
      </g>
     </g>
     <g id="text_21">
      <!-- 20 -->
      <g transform="translate(117.428125 271.198437)scale(0.1 -0.1)">
       <use xlink:href="#DejaVuSans-32"/>
       <use x="63.623047" xlink:href="#DejaVuSans-30"/>
      </g>
     </g>
    </g>
    <g id="xtick_15">
     <g id="line2d_26">
      <g>
       <use style="stroke:#000000;stroke-width:0.8;" x="193.790625" xlink:href="#m34e628df75" y="256.6"/>
      </g>
     </g>
     <g id="text_22">
      <!-- 40 -->
      <g transform="translate(187.428125 271.198437)scale(0.1 -0.1)">
       <use xlink:href="#DejaVuSans-34"/>
       <use x="63.623047" xlink:href="#DejaVuSans-30"/>
      </g>
     </g>
    </g>
    <g id="xtick_16">
     <g id="line2d_27">
      <g>
       <use style="stroke:#000000;stroke-width:0.8;" x="263.790625" xlink:href="#m34e628df75" y="256.6"/>
      </g>
     </g>
     <g id="text_23">
      <!-- 60 -->
      <g transform="translate(257.428125 271.198437)scale(0.1 -0.1)">
       <use xlink:href="#DejaVuSans-36"/>
       <use x="63.623047" xlink:href="#DejaVuSans-30"/>
      </g>
     </g>
    </g>
    <g id="xtick_17">
     <g id="line2d_28">
      <g>
       <use style="stroke:#000000;stroke-width:0.8;" x="333.790625" xlink:href="#m34e628df75" y="256.6"/>
      </g>
     </g>
     <g id="text_24">
      <!-- 80 -->
      <g transform="translate(327.428125 271.198437)scale(0.1 -0.1)">
       <use xlink:href="#DejaVuSans-38"/>
       <use x="63.623047" xlink:href="#DejaVuSans-30"/>
      </g>
     </g>
    </g>
    <g id="xtick_18">
     <g id="line2d_29">
      <g>
       <use style="stroke:#000000;stroke-width:0.8;" x="403.790625" xlink:href="#m34e628df75" y="256.6"/>
      </g>
     </g>
     <g id="text_25">
      <!-- 100 -->
      <g transform="translate(394.246875 271.198437)scale(0.1 -0.1)">
       <use xlink:href="#DejaVuSans-31"/>
       <use x="63.623047" xlink:href="#DejaVuSans-30"/>
       <use x="127.246094" xlink:href="#DejaVuSans-30"/>
      </g>
     </g>
    </g>
   </g>
   <g id="matplotlib.axis_6">
    <g id="ytick_6">
     <g id="line2d_30">
      <g>
       <use style="stroke:#000000;stroke-width:0.8;" x="36.465625" xlink:href="#m2bfddb705a" y="233.394326"/>
      </g>
     </g>
     <g id="text_26">
      <!-- 0.84 -->
      <g transform="translate(7.2 237.193545)scale(0.1 -0.1)">
       <use xlink:href="#DejaVuSans-30"/>
       <use x="63.623047" xlink:href="#DejaVuSans-2e"/>
       <use x="95.410156" xlink:href="#DejaVuSans-38"/>
       <use x="159.033203" xlink:href="#DejaVuSans-34"/>
      </g>
     </g>
    </g>
    <g id="ytick_7">
     <g id="line2d_31">
      <g>
       <use style="stroke:#000000;stroke-width:0.8;" x="36.465625" xlink:href="#m2bfddb705a" y="194.88603"/>
      </g>
     </g>
     <g id="text_27">
      <!-- 0.86 -->
      <g transform="translate(7.2 198.685249)scale(0.1 -0.1)">
       <use xlink:href="#DejaVuSans-30"/>
       <use x="63.623047" xlink:href="#DejaVuSans-2e"/>
       <use x="95.410156" xlink:href="#DejaVuSans-38"/>
       <use x="159.033203" xlink:href="#DejaVuSans-36"/>
      </g>
     </g>
    </g>
   </g>
   <g id="line2d_32">
    <path clip-path="url(#pe5c28bb31c)" d="M 53.790625 198.707464 
L 57.290625 197.030275 
L 60.790625 197.030275 
L 64.290625 197.030275 
L 67.790625 197.030275 
L 71.290625 197.030275 
L 74.790625 198.707464 
L 78.290625 198.707464 
L 81.790625 198.707464 
L 85.290625 198.707464 
L 88.790625 198.707464 
L 92.290625 200.387215 
L 95.790625 200.387215 
L 99.290625 200.387215 
L 102.790625 200.387215 
L 106.290625 200.387215 
L 109.790625 202.069535 
L 113.290625 202.069535 
L 116.790625 202.069535 
L 120.290625 203.754429 
L 123.790625 203.754429 
L 127.290625 205.441903 
L 130.790625 207.131963 
L 134.290625 208.824616 
L 137.790625 210.519866 
L 141.290625 212.217721 
L 144.790625 212.217721 
L 148.290625 212.217721 
L 151.790625 213.918185 
L 155.290625 213.918185 
L 158.790625 213.918185 
L 162.290625 215.621266 
L 165.790625 217.326969 
L 169.290625 217.326969 
L 172.790625 217.326969 
L 176.290625 217.326969 
L 179.790625 219.0353 
L 183.290625 219.0353 
L 186.790625 219.0353 
L 190.290625 222.459872 
L 193.790625 222.459872 
L 197.290625 222.459872 
L 200.790625 222.459872 
L 204.290625 224.176124 
L 207.790625 224.176124 
L 211.290625 225.895029 
L 214.790625 227.616592 
L 218.290625 227.616592 
L 221.790625 227.616592 
L 225.290625 227.616592 
L 228.790625 231.067721 
L 232.290625 231.067721 
L 235.790625 232.797298 
L 239.290625 236.26451 
L 242.790625 238.002156 
L 246.290625 238.002156 
L 249.790625 238.002156 
L 253.290625 238.002156 
L 256.790625 238.002156 
L 260.290625 238.002156 
L 263.790625 239.742505 
L 267.290625 239.742505 
L 270.790625 239.742505 
L 274.290625 239.742505 
L 277.790625 239.742505 
L 281.290625 241.485563 
L 284.790625 243.231336 
L 288.290625 243.231336 
L 291.790625 243.231336 
L 295.290625 241.485563 
L 298.790625 241.485563 
L 302.290625 241.485563 
L 305.790625 241.485563 
L 309.290625 241.485563 
L 312.790625 241.485563 
L 316.290625 243.231336 
L 319.790625 244.97983 
L 323.290625 246.731053 
L 326.790625 250.241706 
L 330.290625 250.241706 
L 333.790625 250.241706 
L 337.290625 250.241706 
L 340.790625 250.241706 
L 344.290625 250.241706 
L 347.790625 250.241706 
L 351.290625 250.241706 
L 354.790625 250.241706 
L 358.290625 250.241706 
L 361.790625 250.241706 
L 365.290625 250.241706 
L 368.790625 250.241706 
L 372.290625 250.241706 
L 375.790625 248.485009 
L 379.290625 248.485009 
L 382.790625 248.485009 
L 386.290625 248.485009 
L 389.790625 250.241706 
L 393.290625 250.241706 
L 396.790625 252.001149 
L 400.290625 253.763346 
" style="fill:none;stroke:#1f77b4;stroke-linecap:square;stroke-width:1.5;"/>
   </g>
   <g id="patch_15">
    <path d="M 36.465625 256.6 
L 36.465625 194.193622 
" style="fill:none;stroke:#000000;stroke-linecap:square;stroke-linejoin:miter;stroke-width:0.8;"/>
   </g>
   <g id="patch_16">
    <path d="M 417.615625 256.6 
L 417.615625 194.193622 
" style="fill:none;stroke:#000000;stroke-linecap:square;stroke-linejoin:miter;stroke-width:0.8;"/>
   </g>
   <g id="patch_17">
    <path d="M 36.465625 256.6 
L 417.615625 256.6 
" style="fill:none;stroke:#000000;stroke-linecap:square;stroke-linejoin:miter;stroke-width:0.8;"/>
   </g>
   <g id="patch_18">
    <path d="M 36.465625 194.193622 
L 417.615625 194.193622 
" style="fill:none;stroke:#000000;stroke-linecap:square;stroke-linejoin:miter;stroke-width:0.8;"/>
   </g>
   <g id="legend_3">
    <g id="patch_19">
     <path d="M 366.501562 216.871747 
L 410.615625 216.871747 
Q 412.615625 216.871747 412.615625 214.871747 
L 412.615625 201.193622 
Q 412.615625 199.193622 410.615625 199.193622 
L 366.501562 199.193622 
Q 364.501562 199.193622 364.501562 201.193622 
L 364.501562 214.871747 
Q 364.501562 216.871747 366.501562 216.871747 
z
" style="fill:#ffffff;opacity:0.8;stroke:#cccccc;stroke-linejoin:miter;"/>
    </g>
    <g id="line2d_33">
     <path d="M 368.501562 207.292059 
L 388.501562 207.292059 
" style="fill:none;stroke:#1f77b4;stroke-linecap:square;stroke-width:1.5;"/>
    </g>
    <g id="line2d_34"/>
    <g id="text_28">
     <!-- F1 -->
     <g transform="translate(396.501562 210.792059)scale(0.1 -0.1)">
      <defs>
       <path d="M 628 4666 
L 3309 4666 
L 3309 4134 
L 1259 4134 
L 1259 2759 
L 3109 2759 
L 3109 2228 
L 1259 2228 
L 1259 0 
L 628 0 
L 628 4666 
z
" id="DejaVuSans-46" transform="scale(0.015625)"/>
      </defs>
      <use xlink:href="#DejaVuSans-46"/>
      <use x="57.519531" xlink:href="#DejaVuSans-31"/>
     </g>
    </g>
   </g>
  </g>
 </g>
 <defs>
  <clipPath id="pdbacfb150b">
   <rect height="62.406378" width="381.15" x="36.465625" y="7.2"/>
  </clipPath>
  <clipPath id="p6687555257">
   <rect height="62.406378" width="381.15" x="36.465625" y="100.696811"/>
  </clipPath>
  <clipPath id="pe5c28bb31c">
   <rect height="62.406378" width="381.15" x="36.465625" y="194.193622"/>
  </clipPath>
 </defs>
</svg>
